<?xml version="1.0" encoding="UTF-8" standalone="no"?>
<!-- Created with Inkscape (http://www.inkscape.org/) -->

<svg
   width="480"
   height="480"
   viewBox="0 0 480 480"
   version="1.1"
   id="svg5"
   inkscape:version="1.3.2 (091e20ef0f, 2023-11-25, custom)"
   sodipodi:docname="planet_icon_dark.svg"
   xmlns:inkscape="http://www.inkscape.org/namespaces/inkscape"
   xmlns:sodipodi="http://sodipodi.sourceforge.net/DTD/sodipodi-0.dtd"
   xmlns:xlink="http://www.w3.org/1999/xlink"
   xmlns="http://www.w3.org/2000/svg"
   xmlns:svg="http://www.w3.org/2000/svg">
  <sodipodi:namedview
     id="namedview7"
     pagecolor="#505050"
     bordercolor="#eeeeee"
     borderopacity="1"
     inkscape:showpageshadow="0"
     inkscape:pageopacity="0"
     inkscape:pagecheckerboard="0"
     inkscape:deskcolor="#505050"
     inkscape:document-units="px"
     showgrid="false"
     inkscape:zoom="0.66190376"
     inkscape:cx="206.97873"
     inkscape:cy="232.66222"
     inkscape:window-width="948"
     inkscape:window-height="493"
     inkscape:window-x="8"
     inkscape:window-y="535"
     inkscape:window-maximized="1"
     inkscape:current-layer="layer1" />
  <defs
     id="defs2">
    <linearGradient
       inkscape:collect="always"
       id="linearGradient7">
      <stop
         style="stop-color:#26282d;stop-opacity:1;"
         offset="0"
         id="stop6" />
      <stop
         style="stop-color:#16171a;stop-opacity:1;"
         offset="1"
         id="stop7" />
    </linearGradient>
    <linearGradient
       inkscape:collect="always"
       id="linearGradient1818">
      <stop
         style="stop-color:#74aaff;stop-opacity:1;"
         offset="0"
         id="stop1814" />
      <stop
         style="stop-color:#7474ff;stop-opacity:1;"
         offset="1"
         id="stop1816" />
    </linearGradient>
    <linearGradient
       inkscape:collect="always"
       xlink:href="#linearGradient1818"
       id="linearGradient1820"
       x1="144.86829"
       y1="249.58051"
       x2="343.38049"
       y2="458.96582"
       gradientUnits="userSpaceOnUse"
       gradientTransform="translate(-10,-110)" />
    <linearGradient
       inkscape:collect="always"
       xlink:href="#linearGradient7"
       id="linearGradient1828"
       x1="37.980492"
       y1="270.58881"
       x2="454.83719"
       y2="481.61389"
       gradientUnits="userSpaceOnUse"
       gradientTransform="matrix(0.98620146,-0.16554966,0,1,-10,-110)" />
    <linearGradient
       inkscape:collect="always"
       xlink:href="#linearGradient7"
       id="linearGradient1830"
       x1="37.456417"
       y1="264.30115"
       x2="448.5611"
       y2="406.31577"
       gradientUnits="userSpaceOnUse"
       gradientTransform="translate(-10,-110)" />
    <filter
       style="color-interpolation-filters:sRGB;"
       inkscape:label="Drop Shadow"
       id="filter6"
       x="-0.16"
       y="-0.16"
       width="1.32"
       height="1.3533333">
      <feFlood
         result="flood"
         in="SourceGraphic"
         flood-opacity="0.400000"
         flood-color="rgb(22,23,26)"
         id="feFlood5" />
      <feGaussianBlur
         result="blur"
         in="SourceGraphic"
         stdDeviation="20.000000"
         id="feGaussianBlur5" />
      <feOffset
         result="offset"
         in="blur"
         dx="0.000000"
         dy="10.000000"
         id="feOffset5" />
      <feComposite
         result="comp1"
         operator="in"
         in="flood"
         in2="offset"
         id="feComposite5" />
      <feComposite
         result="comp2"
         operator="over"
         in="SourceGraphic"
         in2="comp1"
         id="feComposite6" />
    </filter>
  </defs>
  <g
     inkscape:label="Layer 1"
     inkscape:groupmode="layer"
     id="layer1">
    <path
       id="path1204"
       style="fill:url(#linearGradient1828);fill-opacity:1;stroke:none;stroke-width:25;stroke-linecap:round;stroke-linejoin:round"
       d="M 314.3125,133.13672 A 98.302861,228.8845 78.279231 0 0 240,140 98.302861,228.8845 78.279231 0 0 15,277.76953 98.302861,228.8845 78.279231 0 0 240,340 98.302861,228.8845 78.279231 0 0 465,202.23047 98.302861,228.8845 78.279231 0 0 314.3125,133.13672 Z m -18.74414,11.33203 a 76.878557,179.00102 78.279232 0 1 17.5293,0.12305 76.878557,179.00102 78.279232 0 1 20.88086,1.56249 76.878557,179.00102 78.279232 0 1 6.39453,0.94923 76.878557,179.00102 78.279232 0 1 12.78906,2.10937 76.878557,179.00102 78.279232 0 1 6.8125,1.65234 76.878557,179.00102 78.279232 0 1 10.30859,2.85156 76.878557,179.00102 78.279232 0 1 6.29883,2.2793 76.878557,179.00102 78.279232 0 1 8.46094,3.60157 76.878557,179.00102 78.279232 0 1 5.375,2.81445 76.878557,179.00102 78.279232 0 1 6.76171,4.36719 76.878557,179.00102 78.279232 0 1 4.22266,3.23437 76.878557,179.00102 78.279232 0 1 5.07618,5.19922 76.878557,179.00102 78.279232 0 1 2.9082,3.44726 76.878557,179.00102 78.279232 0 1 3.39648,6.36719 76.878557,179.00102 78.279232 0 1 1.48242,3.16992 76.878557,179.00102 78.279232 0 1 1.69727,10.26368 76.878557,179.00102 78.279232 0 1 -0.19922,3.65625 76.878557,179.00102 78.279232 0 1 -0.18749,1.30273 76.878557,179.00102 78.279232 0 1 -0.39454,2.43945 76.878557,179.00102 78.279232 0 1 -0.35156,1.48829 76.878557,179.00102 78.279232 0 1 -0.60938,2.29492 76.878557,179.00102 78.279232 0 1 -0.52148,1.59375 76.878557,179.00102 78.279232 0 1 -0.81641,2.22852 76.878557,179.00102 78.279232 0 1 -0.68945,1.65429 76.878557,179.00102 78.279232 0 1 -1.03906,2.23243 76.878557,179.00102 78.279232 0 1 -0.82227,1.63085 76.878557,179.00102 78.279232 0 1 -1.30859,2.32422 76.878557,179.00102 78.279232 0 1 -0.92579,1.5664 76.878557,179.00102 78.279232 0 1 -1.67382,2.53125 76.878557,179.00102 78.279232 0 1 -0.91602,1.35548 76.878557,179.00102 78.279232 0 1 -2.73437,3.60937 76.878557,179.00102 78.279232 0 1 -0.20508,0.26757 76.878557,179.00102 78.279232 0 1 0,0.002 76.878557,179.00102 78.279232 0 1 -0.24609,0.28711 76.878557,179.00102 78.279232 0 1 -3.07032,3.59376 76.878557,179.00102 78.279232 0 1 -1.1914,1.27343 76.878557,179.00102 78.279232 0 1 -2.4707,2.59961 76.878557,179.00102 78.279232 0 1 -1.54688,1.51172 76.878557,179.00102 78.279232 0 1 -2.49024,2.36913 76.878557,179.00102 78.279232 0 1 -1.6875,1.5215 76.878557,179.00102 78.279232 0 1 -2.64062,2.29687 76.878557,179.00102 78.279232 0 1 -1.91211,1.59179 76.878557,179.00102 78.279232 0 1 -2.8125,2.2461 76.878557,179.00102 78.279232 0 1 -1.94727,1.50781 76.878557,179.00102 78.279232 0 1 -3.0957,2.2832 76.878557,179.00102 78.279232 0 1 -2.04883,1.47657 76.878557,179.00102 78.279232 0 1 -3.48438,2.38086 76.878557,179.00102 78.279232 0 1 -1.85546,1.25195 76.878557,179.00102 78.279232 0 1 -4.97266,3.15625 76.878557,179.00102 78.279232 0 1 -1.4121,0.86523 76.878557,179.00102 78.279232 0 1 -5.1875,3.06446 76.878557,179.00102 78.279232 0 1 -1.99806,1.11523 76.878557,179.00102 78.279232 0 1 -4.21288,2.32226 76.878557,179.00102 78.279232 0 1 -2.44141,1.2793 76.878557,179.00102 78.279232 0 1 -4.00391,2.06055 76.878557,179.00102 78.279232 0 1 -2.70702,1.33789 76.878557,179.00102 78.279232 0 1 -3.91993,1.88476 76.878557,179.00102 78.279232 0 1 -2.98437,1.38673 76.878557,179.00102 78.279232 0 1 -3.91602,1.75976 76.878557,179.00102 78.279232 0 1 -3.02734,1.32617 76.878557,179.00102 78.279232 0 1 -4.21095,1.76758 76.878557,179.00102 78.279232 0 1 -3.00585,1.23632 76.878557,179.00102 78.279232 0 1 -4.47852,1.75391 76.878557,179.00102 78.279232 0 1 -2.81835,1.0918 76.878557,179.00102 78.279232 0 1 -6.18946,2.25781 76.878557,179.00102 78.279232 0 1 -2.41601,0.85157 76.878557,179.00102 78.279232 0 1 -6.46485,2.19335 76.878557,179.00102 78.279232 0 1 -2.61914,0.83399 76.878557,179.00102 78.279232 0 1 -5.12109,1.61132 76.878557,179.00102 78.279232 0 1 -3.29102,0.97853 76.878557,179.00102 78.279232 0 1 -4.53711,1.3203 76.878557,179.00102 78.279232 0 1 -3.49219,0.9668 76.878557,179.00102 78.279232 0 1 -4.56835,1.22266 76.878557,179.00102 78.279232 0 1 -3.56641,0.91406 76.878557,179.00102 78.279232 0 1 -4.47266,1.09375 76.878557,179.00102 78.279232 0 1 -3.61132,0.85352 76.878557,179.00102 78.279232 0 1 -4.80274,1.07031 76.878557,179.00102 78.279232 0 1 -3.24414,0.70312 76.878557,179.00102 78.279232 0 1 -5.37695,1.07813 76.878557,179.00102 78.279232 0 1 -2.86329,0.56445 76.878557,179.00102 78.279232 0 1 -8.13476,1.45313 76.878557,179.00102 78.279232 0 1 -24.02539,3.26953 76.878557,179.00102 78.279232 0 1 -7.92578,0.63086 76.878557,179.00102 78.279232 0 1 -15.68164,1.11524 76.878557,179.00102 78.279232 0 1 -8.97656,0.15234 76.878557,179.00102 78.279232 0 1 -13.72852,0.0293 76.878557,179.00102 78.279232 0 1 -9.05274,-0.46485 76.878557,179.00102 78.279232 0 1 -12.29687,-0.91992 76.878557,179.00102 78.279232 0 1 -8.67968,-1.1211 76.878557,179.00102 78.279232 0 1 -10.97853,-1.80859 76.878557,179.00102 78.279232 0 1 -7.9414,-1.76171 76.878557,179.00102 78.279232 0 1 -9.64453,-2.66798 76.878557,179.00102 78.279232 0 1 -6.95703,-2.35742 76.878557,179.00102 78.279232 0 1 -8.22266,-3.50195 76.878557,179.00102 78.279232 0 1 -5.80273,-2.88476 76.878557,179.00102 78.279232 0 1 -6.68946,-4.32227 76.878557,179.00102 78.279232 0 1 -4.49609,-3.29688 76.878557,179.00102 78.279232 0 1 -5.0957,-5.21679 76.878557,179.00102 78.279232 0 1 -3.06446,-3.4961 76.878557,179.00102 78.279232 0 1 -3.42578,-6.42774 76.878557,179.00102 78.279232 0 1 -1.55859,-3.21874 76.878557,179.00102 78.279232 0 1 -1.71875,-10.39649 76.878557,179.00102 78.279232 0 1 1.71875,-10.97265 76.878557,179.00102 78.279232 0 1 1.56641,-3.76368 76.878557,179.00102 78.279232 0 1 3.41601,-7.55468 76.878557,179.00102 78.279232 0 1 3.08203,-4.55079 76.878557,179.00102 78.279232 0 1 5.07422,-6.89648 76.878557,179.00102 78.279232 0 1 4.50195,-4.81445 76.878557,179.00102 78.279232 0 1 6.69922,-6.57813 76.878557,179.00102 78.279232 0 1 5.77539,-4.81054 76.878557,179.00102 78.279232 0 1 8.23829,-6.27539 76.878557,179.00102 78.279232 0 1 6.96679,-4.69922 76.878557,179.00102 78.279232 0 1 9.64649,-5.90431 76.878557,179.00102 78.279232 0 1 7.91992,-4.41796 76.878557,179.00102 78.279232 0 1 10.98828,-5.5 76.878557,179.00102 78.279232 0 1 8.68164,-4.03711 76.878557,179.00102 78.279232 0 1 12.27344,-5.03906 76.878557,179.00102 78.279232 0 1 9.10742,-3.52344 76.878557,179.00102 78.279232 0 1 13.55274,-4.52148 76.878557,179.00102 78.279232 0 1 9.1582,-2.91992 76.878557,179.00102 78.279232 0 1 15.45313,-4.0879 76.878557,179.00102 78.279232 0 1 8.13866,-2.08593 76.878557,179.00102 78.279232 0 1 24.00391,-4.79102 76.878557,179.00102 78.279232 0 1 22.51758,-3.06445 76.878557,179.00102 78.279232 0 1 6.63086,-0.63672 76.878557,179.00102 78.279232 0 1 16.33594,-1.16211 76.878557,179.00102 78.279232 0 1 6.44726,-0.29688 76.878557,179.00102 78.279232 0 1 3.63672,-0.16601 z" />
    <circle
       style="fill:url(#linearGradient1820);fill-opacity:1;stroke:none;stroke-width:25;stroke-linecap:round;stroke-linejoin:round;filter:url(#filter6)"
       id="path1155"
       cx="240.00002"
       cy="240"
       r="150" />
    <path
       id="path1785"
       style="fill:url(#linearGradient1830);fill-opacity:1;stroke:none;stroke-width:25;stroke-linecap:round;stroke-linejoin:round"
       d="m 463.88281,194.37695 -48.52734,10.40235 a 76.878557,179.00102 78.279232 0 1 -0.17383,1.08008 76.878557,179.00102 78.279232 0 1 -0.35156,1.48828 76.878557,179.00102 78.279232 0 1 -0.60938,2.29492 76.878557,179.00102 78.279232 0 1 -0.52148,1.59375 76.878557,179.00102 78.279232 0 1 -0.81641,2.22851 76.878557,179.00102 78.279232 0 1 -0.68945,1.6543 76.878557,179.00102 78.279232 0 1 -1.03906,2.23242 76.878557,179.00102 78.279232 0 1 -0.82227,1.63086 76.878557,179.00102 78.279232 0 1 -1.30859,2.32422 76.878557,179.00102 78.279232 0 1 -0.92578,1.56641 76.878557,179.00102 78.279232 0 1 -1.67383,2.53125 76.878557,179.00102 78.279232 0 1 -0.91602,1.35547 76.878557,179.00102 78.279232 0 1 -2.73437,3.60937 76.878557,179.00102 78.279232 0 1 -0.20508,0.26758 76.878557,179.00102 78.279232 0 1 0,0.002 76.878557,179.00102 78.279232 0 1 -0.24609,0.28711 76.878557,179.00102 78.279232 0 1 -3.07032,3.59375 76.878557,179.00102 78.279232 0 1 -1.1914,1.27344 76.878557,179.00102 78.279232 0 1 -2.47071,2.59961 76.878557,179.00102 78.279232 0 1 -1.54687,1.51172 76.878557,179.00102 78.279232 0 1 -2.49024,2.36914 76.878557,179.00102 78.279232 0 1 -1.6875,1.52148 76.878557,179.00102 78.279232 0 1 -2.64062,2.29688 76.878557,179.00102 78.279232 0 1 -1.91211,1.59179 76.878557,179.00102 78.279232 0 1 -2.8125,2.2461 76.878557,179.00102 78.279232 0 1 -1.94727,1.50781 76.878557,179.00102 78.279232 0 1 -3.0957,2.2832 76.878557,179.00102 78.279232 0 1 -2.04883,1.47657 76.878557,179.00102 78.279232 0 1 -3.48437,2.38085 76.878557,179.00102 78.279232 0 1 -1.85547,1.25196 76.878557,179.00102 78.279232 0 1 -4.97266,3.15625 76.878557,179.00102 78.279232 0 1 -1.41211,0.86523 76.878557,179.00102 78.279232 0 1 -5.1875,3.06446 76.878557,179.00102 78.279232 0 1 -1.99804,1.11523 76.878557,179.00102 78.279232 0 1 -4.21289,2.32227 76.878557,179.00102 78.279232 0 1 -2.44141,1.27929 76.878557,179.00102 78.279232 0 1 -4.00391,2.06055 76.878557,179.00102 78.279232 0 1 -2.70703,1.33789 76.878557,179.00102 78.279232 0 1 -3.91992,1.88477 76.878557,179.00102 78.279232 0 1 -2.98437,1.38671 76.878557,179.00102 78.279232 0 1 -3.91602,1.75977 76.878557,179.00102 78.279232 0 1 -3.02734,1.32617 76.878557,179.00102 78.279232 0 1 -4.21094,1.76758 76.878557,179.00102 78.279232 0 1 -3.00586,1.23633 76.878557,179.00102 78.279232 0 1 -4.47852,1.7539 76.878557,179.00102 78.279232 0 1 -2.81836,1.0918 76.878557,179.00102 78.279232 0 1 -6.18945,2.25781 76.878557,179.00102 78.279232 0 1 -2.41601,0.85157 76.878557,179.00102 78.279232 0 1 -6.46485,2.19336 76.878557,179.00102 78.279232 0 1 -2.61914,0.83398 76.878557,179.00102 78.279232 0 1 -5.12109,1.61133 76.878557,179.00102 78.279232 0 1 -3.29102,0.97851 76.878557,179.00102 78.279232 0 1 -4.53711,1.32032 76.878557,179.00102 78.279232 0 1 -3.49219,0.96679 76.878557,179.00102 78.279232 0 1 -4.56835,1.22266 76.878557,179.00102 78.279232 0 1 -3.56641,0.91406 76.878557,179.00102 78.279232 0 1 -4.47266,1.09375 76.878557,179.00102 78.279232 0 1 -3.61132,0.85352 76.878557,179.00102 78.279232 0 1 -4.80274,1.07031 76.878557,179.00102 78.279232 0 1 -3.24414,0.70313 76.878557,179.00102 78.279232 0 1 -5.37695,1.07812 76.878557,179.00102 78.279232 0 1 -2.86328,0.56445 76.878557,179.00102 78.279232 0 1 -8.13477,1.45313 76.878557,179.00102 78.279232 0 1 -24.02539,3.26953 76.878557,179.00102 78.279232 0 1 -7.92578,0.63086 76.878557,179.00102 78.279232 0 1 -15.68164,1.11523 76.878557,179.00102 78.279232 0 1 -8.97657,0.15235 76.878557,179.00102 78.279232 0 1 -13.72851,0.0293 76.878557,179.00102 78.279232 0 1 -9.05273,-0.46484 76.878557,179.00102 78.279232 0 1 -12.29688,-0.91992 76.878557,179.00102 78.279232 0 1 -8.67969,-1.1211 76.878557,179.00102 78.279232 0 1 -10.97851,-1.80859 76.878557,179.00102 78.279232 0 1 -7.94141,-1.76172 76.878557,179.00102 78.279232 0 1 -9.64453,-2.66797 76.878557,179.00102 78.279232 0 1 -6.95703,-2.35742 76.878557,179.00102 78.279232 0 1 -8.22266,-3.50195 76.878557,179.00102 78.279232 0 1 -5.80273,-2.88477 76.878557,179.00102 78.279232 0 1 -6.68946,-4.32226 76.878557,179.00102 78.279232 0 1 -4.49609,-3.29688 76.878557,179.00102 78.279232 0 1 -5.0957,-5.2168 76.878557,179.00102 78.279232 0 1 -2.27149,-2.59179 L 16.880859,290.20312 A 98.302861,228.8845 78.279231 0 0 240,340 98.302861,228.8845 78.279231 0 0 465,202.23047 a 98.302861,228.8845 78.279231 0 0 -1.11719,-7.85352 z" />
  </g>
</svg>
